HIERARCHY
ROOT Hips
{
	OFFSET 0.00000 0.00000 0.00000
	CHANNELS 6 Xposition Yposition Zposition Yrotation Zrotation Xrotation 
	JOINT Lumbar
	{
		OFFSET 0 0 0
		CHANNELS 3 Zrotation Xrotation Yrotation
		JOINT Neck
		{
			OFFSET 0.00 0.2701 0.00
			CHANNELS 3 Zrotation Xrotation Yrotation
			End Site
			{
				OFFSET 0.00 0.1379 0.00
			}
		}
		JOINT RightShoulder
		{
			OFFSET 0.0119 0.2289 0.1181
			CHANNELS 3 Zrotation Xrotation Yrotation
			JOINT RightElbow
			{
				OFFSET 0.00 -0.1475 0.00
				CHANNELS 2 Zrotation Yrotation
				JOINT RightWrist
				{
					OFFSET 0.00 -0.1605 0.00
					CHANNELS 2 Zrotation Xrotation
					End Site
					{
						OFFSET 0.0040 -0.1068 0.0006
					}
				}
			}
		}
		JOINT LeftShoulder
		{
			OFFSET 0.0119 0.2289 -0.1181
			CHANNELS 3 Zrotation Xrotation Yrotation
			JOINT LeftElbow
			{
				OFFSET 0.00 -0.1475 0.00
				CHANNELS 2 Zrotation Yrotation
				JOINT LeftWrist
				{
					OFFSET 0.00 -0.1605 0.00
					CHANNELS 2 Zrotation Xrotation
					End Site
					{
						OFFSET 0.0040 -0.1068 -0.0006
					}
				}
			}
		}
	}
	JOINT RightHip
	{
		OFFSET 0.0316 -0.0424 0.0458
		CHANNELS 3 Zrotation Xrotation Yrotation
		JOINT RightKnee
		{
			OFFSET 0.00 -0.2438 0.00
			CHANNELS 1 Zrotation
			JOINT RightAnkle
			{
				OFFSET 0.00 -0.2449 0.00
				CHANNELS 3 Zrotation Xrotation Yrotation
				End Site
				{
					OFFSET 0.1237 -0.0542 0.0051
				}
			}
		}
	}
	JOINT LeftHip
	{
		OFFSET 0.0316 -0.0424 -0.0458
		CHANNELS 3 Zrotation Xrotation Yrotation
		JOINT LeftKnee
		{
			OFFSET 0.00 -0.2438 0.00
			CHANNELS 1 Zrotation
			JOINT LeftAnkle
			{
				OFFSET 0.00 -0.2449 0.00
				CHANNELS 3 Zrotation Xrotation Yrotation
				End Site
				{
					OFFSET 0.1237 -0.0542 -0.0051
				}
			}
		}
	}
}
MOTION
Frames: 25
Frame Time: 0.02
0.00179 0.00203 -0.00645 -151.50903 -31.36306 -1.88029 36.90937 3.70508 1.33833 21.84842 -5.14992 -0.44433 84.42371 -12.88503 48.60174 28.14278 93.37285 -15.86667 -10.08145 88.64824 2.73718 -58.63804 28.82617 -104.64316 -13.9949 8.57044 35.94519 0.5077 -3.28123 -19.19521 -6.63905 -3.55688 -2.48967 53.71472 7.68546 -2.40026 -39.80398 -7.09826 2.95535 2.18254
0.00039 0.0019 -0.00655 -151.48292 -31.53999 -1.89565 37.47635 3.72388 1.26468 21.23291 -4.97324 -0.44525 84.08996 -13.82791 48.4171 29.34788 93.50836 -15.82382 -9.91278 88.1668 3.98231 -57.67671 30.15801 -103.03578 -13.52301 8.66094 36.02307 0.53554 -3.62987 -19.20448 -6.60953 -3.50583 -2.4604 52.87768 7.42747 -2.05763 -39.10111 -7.04651 2.98306 2.19585
-0.00101 0.00176 -0.00665 -151.45661 -31.71682 -1.9108 38.04227 3.74238 1.19076 20.61847 -4.79641 -0.44616 83.75509 -14.77003 48.23091 30.55453 93.64471 -15.78186 -9.74444 87.68385 5.22683 -56.71598 31.49153 -101.4317 -13.05184 8.74985 36.10099 0.56319 -3.97747 -19.21371 -6.58009 -3.45495 -2.43123 52.04263 7.17022 -1.71526 -38.39874 -6.99489 3.01059 2.20907
-0.0024 0.00162 -0.00675 -151.43052 -31.89327 -1.92609 38.60762 3.76108 1.11726 20.00475 -4.62016 -0.44707 83.42209 -15.7103 48.0465 31.75661 93.78008 -15.73929 -9.57626 87.20356 6.4686 -55.75732 32.82008 -99.82896 -12.58124 8.83982 36.17867 0.59094 -4.32505 -19.22295 -6.55065 -3.40407 -2.40205 51.20805 6.91302 -1.37354 -37.69773 -6.94329 3.03819 2.22233
-0.00379 0.00149 -0.00685 -151.40478 -32.06967 -1.94162 39.17378 3.78017 1.04419 19.39019 -4.44434 -0.44798 83.0908 -16.65066 47.86442 32.95561 93.91393 -15.69548 -9.4078 86.72546 7.70992 -54.79869 34.14515 -98.22367 -12.11031 8.93194 36.25622 0.61892 -4.67364 -19.23222 -6.52116 -3.35301 -2.37277 50.37176 6.65506 -1.03191 -36.99693 -6.89157 3.06601 2.2357
-0.00519 0.00135 -0.00695 -151.37728 -32.2474 -1.95595 39.73913 3.79743 0.96851 18.776 -4.2654 -0.44889 82.74834 -17.59649 47.6696 34.17848 94.05538 -15.65737 -9.23971 86.23212 8.96113 -53.83349 35.49647 -96.62234 -11.63875 9.01419 36.33492 0.64585 -5.01913 -19.24136 -6.49183 -3.30251 -2.34382 49.53942 6.39933 -0.68801 -36.29138 -6.84019 3.09294 2.2486
-0.00658 0.00121 -0.00706 -151.35328 -32.42222 -1.97273 40.30551 3.81834 0.89817 18.16195 -4.0929 -0.4498 82.42926 -18.52989 47.50062 35.35083 94.18198 -15.60802 -9.07111 85.77112 10.19067 -52.88323 36.79264 -95.01451 -11.16869 9.11593 36.41118 0.67491 -5.37052 -19.25078 -6.46219 -3.25096 -2.31425 48.69991 6.13947 -0.34896 -35.5959 -6.78815 3.12161 2.26243
-0.00798 0.00108 -0.00716 -151.32617 -32.59979 -1.98718 40.87091 3.83592 0.82292 17.54743 -3.91452 -0.45072 82.08764 -19.47544 47.30785 36.57185 94.32115 -15.56869 -8.90292 85.27824 11.44091 -51.91801 38.14121 -93.4132 -10.69774 9.20022 36.48976 0.70191 -5.71638 -19.2599 -6.43284 -3.20035 -2.28524 47.86728 5.88329 -0.00562 -34.89163 -6.73675 3.14869 2.2754
-0.00937 0.00095 -0.00724 -151.2947 -32.7806 -1.99905 41.4356 3.84923 0.7415 16.93325 -3.72854 -0.45163 81.72182 -20.43387 47.0854 37.84555 94.48043 -15.5431 -8.73535 84.75381 12.71471 -50.93836 39.54926 -91.81679 -10.2234 9.26087 36.57096 0.72675 -6.05598 -19.26879 -6.40381 -3.15096 -2.25694 47.04154 5.63198 0.34398 -34.17405 -6.68602 3.1738 2.28731
-0.01077 0.00079 -0.0074 -151.28664 -32.94245 -2.02657 42.00585 3.88654 0.69505 16.31985 -3.58503 -0.45254 81.50526 -21.31237 47.03187 38.79581 94.53832 -15.44296 -8.56455 84.43315 13.84782 -50.05324 40.60149 -90.18289 -9.76162 9.45058 36.63644 0.76508 -6.43314 -19.27945 -6.37283 -3.09476 -2.22465 46.17155 5.35376 0.66062 -33.5253 -6.63107 3.21017 2.30529
-0.01216 0.00069 -0.0074 -151.23032 -33.14441 -2.02056 42.5633 3.87359 0.57521 15.70317 -3.3528 -0.45346 80.96768 -22.36293 46.62336 40.44076 94.80082 -15.49716 -8.40039 83.66872 15.28059 -48.96167 42.41242 -88.63433 -9.27793 9.3726 36.73548 0.77429 -6.73 -19.28609 -6.34607 -3.05283 -2.20072 45.39799 5.13163 1.04475 -32.73649 -6.58525 3.22283 2.31052
-0.01355 0.00079 -0.00695 -151.03129 -33.45673 -1.92612 43.09437 3.71831 0.24879 15.09085 -2.8672 -0.45442 79.59002 -23.86258 45.21834 43.90862 95.70888 -16.00351 -8.25624 81.78523 17.51973 -47.35303 46.26 -87.26966 -8.6948 8.51421 36.92447 0.70845 -6.81291 -19.28411 -6.32999 -3.05119 -2.20038 44.86598 5.07055 1.63282 -31.51666 -6.56276 3.16943 2.28003
-0.01493 0.00095 -0.00633 -150.78597 -33.8092 -1.79756 43.61086 3.51357 -0.15019 14.473 -2.29444 -0.45539 77.88285 -25.5387 43.46076 48.08681 96.80796 -16.65962 -8.11868 79.43682 20.06102 -45.5271 50.87568 -85.99983 -8.09655 7.3953 37.14757 0.6126 -6.81393 -19.27773 -6.31831 -3.06366 -2.20833 44.4351 5.06457 2.28498 -30.16493 -6.54972 3.0925 2.23693
-0.0163 0.00108 -0.0058 -150.5682 -34.14315 -1.68201 44.12848 3.33407 -0.51278 13.84867 -1.76788 -0.45636 76.29923 -27.14996 41.87946 51.998 97.76325 -17.22841 -7.97658 77.23786 22.47673 -43.76925 55.17233 -84.71956 -7.5314 6.42578 37.35644 0.52712 -6.84831 -19.27169 -6.30523 -3.06894 -2.21208 43.97296 5.02862 2.89586 -28.90393 -6.53349 3.02687 2.20003
-0.01775 0.00121 -0.00525 -150.32174 -34.47856 -1.57607 44.66979 3.14197 -0.89063 13.2613 -1.21289 -0.45733 74.82374 -28.69938 40.23064 55.68638 98.95477 -17.87848 -7.83994 75.30289 24.85071 -42.14356 59.35286 -83.30214 -6.85713 5.32573 37.55991 0.45481 -6.89902 -19.27233 -6.28968 -3.07757 -2.21767 43.44882 5.01323 3.55904 -27.5123 -6.51273 2.95826 2.16094
-0.01901 0.00136 -0.00468 -150.12548 -34.82016 -1.44309 45.15765 2.96545 -1.25304 12.59686 -0.69698 -0.45829 73.04716 -30.41623 38.63768 59.99289 99.70544 -18.39515 -7.69483 72.703 27.37421 -40.18716 63.94589 -82.1922 -6.40453 4.43475 37.78281 0.34865 -6.89604 -19.25843 -6.28027 -3.08252 -2.22137 43.07795 4.96851 4.12738 -26.36199 -6.5035 2.89074 2.12364
-0.01975 0.00157 -0.00414 -150.06687 -35.17113 -1.23481 45.50692 2.83493 -1.56218 11.71075 -0.30639 -0.4592 70.5013 -32.57819 37.29646 65.95082 99.1374 -18.50168 -7.5124 68.42656 30.30997 -37.40726 69.583 -81.91361 -6.58565 4.19502 38.04997 0.1507 -6.76714 -19.2017 -6.28727 -3.07437 -2.21805 43.10418 4.82539 4.42733 -25.90676 -6.52504 2.82819 2.09262
-0.02028 0.00179 -0.00359 -150.06243 -35.52647 -1.00222 45.80183 2.72344 -1.85205 10.74935 0.04101 -0.46008 67.66722 -34.89694 36.02127 72.4825 98.12713 -18.46893 -7.32299 63.49071 33.37001 -34.29691 75.58952 -81.94009 -6.9872 4.17298 38.33558 -0.07912 -6.58651 -19.1311 -6.30023 -3.062 -2.21251 43.28142 4.6516 4.62789 -25.69969 -6.55765 2.76822 2.06417
-0.0209 0.00201 -0.00303 -150.04161 -35.8785 -0.78661 46.11812 2.60936 -2.14593 9.82887 0.40574 -0.46098 64.97748 -37.12774 34.70909 78.67548 97.35774 -18.50421 -7.1455 58.82421 36.32745 -31.31192 81.36771 -81.8233 -7.27591 4.0445 38.61353 -0.29072 -6.42826 -19.06939 -6.31009 -3.05116 -2.2078 43.39036 4.49434 4.86791 -25.38132 -6.58439 2.70964 2.03573
-0.02155 0.00225 -0.00251 -149.98549 -36.23779 -0.5446 46.44814 2.46834 -2.46191 8.87914 0.78363 -0.46188 62.22039 -39.43814 33.41562 85.22837 96.43518 -18.52783 -6.93341 54.26086 39.49823 -28.41745 87.43448 -81.72949 -7.6169 3.93813 38.89003 -0.51949 -6.27246 -18.99692 -6.3217 -3.04216 -2.20402 43.50136 4.32788 5.13422 -25.05195 -6.61497 2.6396 2.00191
-0.02208 0.00243 -0.00191 -150.01497 -36.58213 -0.35243 46.73659 2.38814 -2.72693 7.9735 1.12218 -0.46276 59.53876 -41.61396 32.10155 91.15107 95.71333 -18.53685 -6.78902 49.34299 42.24011 -25.26713 92.96969 -81.65888 -7.90237 3.84143 39.17295 -0.71924 -6.09967 -18.94325 -6.33109 -3.02847 -2.19781 43.64275 4.17281 5.32138 -24.80636 -6.64008 2.59409 1.97999
-0.02235 0.00239 -0.00108 -150.28023 -36.88671 -0.30253 46.92556 2.47528 -2.84993 7.19995 1.36665 -0.46357 57.14505 -43.40974 30.73356 95.2521 95.75036 -18.57411 -6.85673 43.51979 43.85121 -21.42266 97.01142 -81.57892 -7.97385 3.71372 39.47352 -0.83467 -5.89918 -18.94818 -6.33224 -3.0001 -2.18406 43.82947 4.05447 5.31372 -24.73047 -6.64697 2.61812 1.9912
-0.02252 0.00227 -0.00018 -150.62779 -37.17534 -0.30402 47.0742 2.62245 -2.92275 6.47517 1.57175 -0.46435 54.83837 -45.05756 29.34148 98.68344 95.98902 -18.59596 -6.98909 37.38384 45.00878 -17.34752 100.48861 -81.51129 -7.98339 3.59007 39.77888 -0.91906 -5.68296 -18.97195 -6.33105 -2.96753 -2.16811 44.04134 3.9488 5.22973 -24.73126 -6.64798 2.66643 2.01419
-0.02272 0.0022 0.00067 -150.92944 -37.46944 -0.28301 47.24013 2.73971 -3.02251 5.73303 1.79196 -0.46515 52.4861 -46.75335 27.94879 102.38054 96.06686 -18.59936 -7.07557 31.44773 46.31789 -13.42202 104.17901 -81.43645 -8.02548 3.46922 40.07902 -1.01504 -5.46954 -18.98493 -6.33136 -2.93872 -2.15408 44.24232 3.83847 5.18061 -24.69812 -6.6519 2.70212 2.03124
-0.02296 0.00211 0.00155 -151.26829 -37.77148 -0.2576 47.40879 2.86869 -3.10546 4.96687 2.02288 -0.46594 50.14426 -48.53862 26.60407 106.26548 96.4077 -18.69859 -7.22868 25.23421 47.86352 -9.28933 108.06935 -81.37817 -8.05578 3.3375 40.39283 -1.12243 -5.27098 -19.00673 -6.33009 -2.90227 -2.13625 44.44647 3.7224 5.12687 -24.66933 -6.65521 2.74452 2.05083
